<mxfile host="app.diagrams.net" agent="Mozilla/5.0 (Windows NT 10.0; Win64; x64) AppleWebKit/537.36 (KHTML, like Gecko) Chrome/133.0.0.0 Safari/537.36" version="26.1.0">
  <diagram name="Page-1" id="55a83fd1-7818-8e21-69c5-c3457e3827bb">
    <mxGraphModel dx="2074" dy="1098" grid="1" gridSize="10" guides="1" tooltips="1" connect="1" arrows="1" fold="1" page="1" pageScale="1" pageWidth="1700" pageHeight="1100" background="none" math="0" shadow="0">
      <root>
        <mxCell id="0" />
        <mxCell id="1" parent="0" />
        <mxCell id="P97dzpDGMUwGgLLeNrZU-2" value="&lt;font style=&quot;font-size: 19px;&quot;&gt;Asus AX5700&lt;/font&gt;&lt;div&gt;&lt;font style=&quot;font-size: 19px;&quot;&gt;无线路由器&lt;/font&gt;&lt;/div&gt;" style="image;html=1;image=img/lib/clip_art/networking/Repeater_128x128.png" vertex="1" parent="1">
          <mxGeometry x="1115" y="600" width="80" height="80" as="geometry" />
        </mxCell>
        <mxCell id="P97dzpDGMUwGgLLeNrZU-3" value="" style="image;html=1;image=img/lib/clip_art/computers/iMac_128x128.png" vertex="1" parent="1">
          <mxGeometry x="1100" y="380" width="80" height="80" as="geometry" />
        </mxCell>
        <mxCell id="P97dzpDGMUwGgLLeNrZU-5" value="&lt;font style=&quot;font-size: 18px;&quot;&gt;打印机&lt;/font&gt;" style="image;html=1;image=img/lib/clip_art/computers/Printer_Commercial_128x128.png" vertex="1" parent="1">
          <mxGeometry x="1090" y="230" width="80" height="80" as="geometry" />
        </mxCell>
        <mxCell id="P97dzpDGMUwGgLLeNrZU-7" value="" style="image;html=1;image=img/lib/clip_art/computers/Monitor_Tower_128x128.png" vertex="1" parent="1">
          <mxGeometry x="1110" y="490" width="80" height="80" as="geometry" />
        </mxCell>
        <mxCell id="P97dzpDGMUwGgLLeNrZU-20" style="edgeStyle=orthogonalEdgeStyle;rounded=0;orthogonalLoop=1;jettySize=auto;html=1;" edge="1" parent="1" source="P97dzpDGMUwGgLLeNrZU-8" target="P97dzpDGMUwGgLLeNrZU-10">
          <mxGeometry relative="1" as="geometry" />
        </mxCell>
        <mxCell id="P97dzpDGMUwGgLLeNrZU-8" value="" style="image;html=1;image=img/lib/clip_art/networking/Firewall-page1_128x128.png" vertex="1" parent="1">
          <mxGeometry x="340" y="406.47" width="80" height="80" as="geometry" />
        </mxCell>
        <mxCell id="P97dzpDGMUwGgLLeNrZU-9" value="&lt;font style=&quot;font-size: 17px;&quot;&gt;TP-LINK&lt;/font&gt;&lt;div&gt;&lt;font style=&quot;font-size: 17px;&quot;&gt;TL-ER7520G&lt;/font&gt;&lt;/div&gt;" style="image;html=1;image=img/lib/clip_art/networking/Router_Icon_128x128.png" vertex="1" parent="1">
          <mxGeometry x="270" y="406.47" width="80" height="80" as="geometry" />
        </mxCell>
        <mxCell id="P97dzpDGMUwGgLLeNrZU-22" style="edgeStyle=orthogonalEdgeStyle;rounded=0;orthogonalLoop=1;jettySize=auto;html=1;entryX=0;entryY=0.5;entryDx=0;entryDy=0;" edge="1" parent="1" source="P97dzpDGMUwGgLLeNrZU-10" target="P97dzpDGMUwGgLLeNrZU-16">
          <mxGeometry relative="1" as="geometry">
            <Array as="points">
              <mxPoint x="740" y="430" />
              <mxPoint x="740" y="290" />
            </Array>
          </mxGeometry>
        </mxCell>
        <mxCell id="P97dzpDGMUwGgLLeNrZU-24" style="edgeStyle=orthogonalEdgeStyle;rounded=0;orthogonalLoop=1;jettySize=auto;html=1;exitX=1;exitY=0.5;exitDx=0;exitDy=0;" edge="1" parent="1" source="P97dzpDGMUwGgLLeNrZU-10">
          <mxGeometry relative="1" as="geometry">
            <mxPoint x="810" y="446" as="targetPoint" />
          </mxGeometry>
        </mxCell>
        <mxCell id="P97dzpDGMUwGgLLeNrZU-27" style="edgeStyle=orthogonalEdgeStyle;rounded=0;orthogonalLoop=1;jettySize=auto;html=1;exitX=1;exitY=0.75;exitDx=0;exitDy=0;entryX=0;entryY=0.5;entryDx=0;entryDy=0;" edge="1" parent="1" source="P97dzpDGMUwGgLLeNrZU-10" target="P97dzpDGMUwGgLLeNrZU-18">
          <mxGeometry relative="1" as="geometry" />
        </mxCell>
        <mxCell id="P97dzpDGMUwGgLLeNrZU-10" value="&lt;font style=&quot;font-size: 17px;&quot;&gt;H3C S24G-U&lt;/font&gt;" style="image;html=1;image=img/lib/clip_art/networking/Switch_128x128.png" vertex="1" parent="1">
          <mxGeometry x="560" y="388.24" width="120" height="116.47" as="geometry" />
        </mxCell>
        <mxCell id="P97dzpDGMUwGgLLeNrZU-14" style="edgeStyle=orthogonalEdgeStyle;rounded=0;orthogonalLoop=1;jettySize=auto;html=1;entryX=0;entryY=0.5;entryDx=0;entryDy=0;" edge="1" parent="1" source="P97dzpDGMUwGgLLeNrZU-11" target="P97dzpDGMUwGgLLeNrZU-9">
          <mxGeometry relative="1" as="geometry" />
        </mxCell>
        <mxCell id="P97dzpDGMUwGgLLeNrZU-11" value="" style="points=[];aspect=fixed;html=1;align=center;shadow=0;dashed=0;fillColor=#FF6A00;strokeColor=none;shape=mxgraph.alibaba_cloud.ccn_cloud_connect_network;" vertex="1" parent="1">
          <mxGeometry x="60" y="400" width="113.61" height="92.95" as="geometry" />
        </mxCell>
        <mxCell id="P97dzpDGMUwGgLLeNrZU-43" style="edgeStyle=orthogonalEdgeStyle;rounded=0;orthogonalLoop=1;jettySize=auto;html=1;exitX=1;exitY=0.5;exitDx=0;exitDy=0;" edge="1" parent="1" source="P97dzpDGMUwGgLLeNrZU-16">
          <mxGeometry relative="1" as="geometry">
            <mxPoint x="1090" y="290" as="targetPoint" />
          </mxGeometry>
        </mxCell>
        <mxCell id="P97dzpDGMUwGgLLeNrZU-16" value="&lt;font style=&quot;font-size: 17px;&quot;&gt;H3C S24G-U&lt;/font&gt;&lt;div&gt;&lt;font style=&quot;font-size: 17px;&quot;&gt;办公区域1&lt;/font&gt;&lt;/div&gt;" style="image;html=1;image=img/lib/clip_art/networking/Switch_128x128.png" vertex="1" parent="1">
          <mxGeometry x="820" y="250.00000000000003" width="80" height="80" as="geometry" />
        </mxCell>
        <mxCell id="P97dzpDGMUwGgLLeNrZU-17" value="&lt;font style=&quot;font-size: 17px;&quot;&gt;H3C S24G-U&lt;/font&gt;&lt;div&gt;&lt;font style=&quot;font-size: 17px;&quot;&gt;办公区域2&lt;/font&gt;&lt;/div&gt;" style="image;html=1;image=img/lib/clip_art/networking/Switch_128x128.png" vertex="1" parent="1">
          <mxGeometry x="810" y="412.95000000000005" width="80" height="80" as="geometry" />
        </mxCell>
        <mxCell id="P97dzpDGMUwGgLLeNrZU-41" style="edgeStyle=orthogonalEdgeStyle;rounded=0;orthogonalLoop=1;jettySize=auto;html=1;exitX=1;exitY=0.75;exitDx=0;exitDy=0;" edge="1" parent="1" source="P97dzpDGMUwGgLLeNrZU-18">
          <mxGeometry relative="1" as="geometry">
            <mxPoint x="1110" y="650" as="targetPoint" />
          </mxGeometry>
        </mxCell>
        <mxCell id="P97dzpDGMUwGgLLeNrZU-18" value="&lt;font style=&quot;font-size: 17px;&quot;&gt;H3C S24G-U&lt;/font&gt;&lt;div&gt;&lt;font style=&quot;font-size: 17px;&quot;&gt;办公区域3&lt;/font&gt;&lt;/div&gt;" style="image;html=1;image=img/lib/clip_art/networking/Switch_128x128.png" vertex="1" parent="1">
          <mxGeometry x="820" y="590" width="80" height="80" as="geometry" />
        </mxCell>
        <mxCell id="P97dzpDGMUwGgLLeNrZU-30" value="" style="endArrow=classic;html=1;rounded=0;entryX=0;entryY=0.5;entryDx=0;entryDy=0;" edge="1" parent="1" target="P97dzpDGMUwGgLLeNrZU-3">
          <mxGeometry width="50" height="50" relative="1" as="geometry">
            <mxPoint x="890" y="450" as="sourcePoint" />
            <mxPoint x="940" y="400" as="targetPoint" />
          </mxGeometry>
        </mxCell>
        <mxCell id="P97dzpDGMUwGgLLeNrZU-31" value="" style="endArrow=classic;html=1;rounded=0;" edge="1" parent="1" source="P97dzpDGMUwGgLLeNrZU-17">
          <mxGeometry width="50" height="50" relative="1" as="geometry">
            <mxPoint x="840" y="580" as="sourcePoint" />
            <mxPoint x="1100" y="520" as="targetPoint" />
          </mxGeometry>
        </mxCell>
        <mxCell id="P97dzpDGMUwGgLLeNrZU-32" value="" style="image;html=1;image=img/lib/clip_art/people/Suit_Woman_Green_128x128.png" vertex="1" parent="1">
          <mxGeometry x="1190" y="493" width="80" height="80" as="geometry" />
        </mxCell>
        <mxCell id="P97dzpDGMUwGgLLeNrZU-33" value="" style="image;html=1;image=img/lib/clip_art/people/Suit_Man_Green_128x128.png" vertex="1" parent="1">
          <mxGeometry x="1190" y="370" width="80" height="80" as="geometry" />
        </mxCell>
        <mxCell id="P97dzpDGMUwGgLLeNrZU-36" value="" style="rounded=1;whiteSpace=wrap;html=1;" vertex="1" parent="1">
          <mxGeometry x="1000" y="750" width="310" height="140" as="geometry" />
        </mxCell>
        <mxCell id="P97dzpDGMUwGgLLeNrZU-6" value="" style="image;html=1;image=img/lib/clip_art/computers/iPad_128x128.png" vertex="1" parent="1">
          <mxGeometry x="1060" y="770" width="80" height="80" as="geometry" />
        </mxCell>
        <mxCell id="P97dzpDGMUwGgLLeNrZU-4" value="" style="image;html=1;image=img/lib/clip_art/computers/MacBook_128x128.png" vertex="1" parent="1">
          <mxGeometry x="1170" y="770" width="80" height="80" as="geometry" />
        </mxCell>
        <mxCell id="P97dzpDGMUwGgLLeNrZU-38" value="&lt;font style=&quot;font-size: 21px; color: rgb(53, 2, 255);&quot;&gt;移动办公&lt;/font&gt;" style="text;strokeColor=none;fillColor=none;html=1;fontSize=24;fontStyle=1;verticalAlign=middle;align=center;" vertex="1" parent="1">
          <mxGeometry x="1110" y="850" width="100" height="40" as="geometry" />
        </mxCell>
        <mxCell id="P97dzpDGMUwGgLLeNrZU-44" value="Internet" style="text;strokeColor=none;fillColor=none;html=1;fontSize=24;fontStyle=1;verticalAlign=middle;align=center;" vertex="1" parent="1">
          <mxGeometry x="66.79999999999995" y="486.47" width="100" height="40" as="geometry" />
        </mxCell>
      </root>
    </mxGraphModel>
  </diagram>
</mxfile>
